# xmcd
#
# Track frame offsets:
#	150
#	13725
#	18300
#	25275
#	32175
#	45825
#	56700
#	75900
#	82800
#	97351
#	106501
#	115501
#	128026
#	140851
#	149551
#	162001
#	168826
#	184877
#	198227
#
# Disc length: 2731 seconds
#
# Revision: 1
# Processed by: cddbd v1.5.1PL0 Copyright (c) Steve Scherf et al.
# Submitted via: CDex 1.50Beta5
#
DISCID=ee0aa913
DTITLE=あがた森魚 - オー・ド・ヴィ
DYEAR=1900
DGENRE=
TTITLE0=オー・ド・ヴィ 〜main theme
TTITLE1=命の水 〜opening
TTITLE2=順三郎 S#4
TTITLE3=リツ子 S#7
TTITLE4=命の水 S#8
TTITLE5=火露見 S#18
TTITLE6=かぼちゃはpotiron
TTITLE7=火露見 S#28
TTITLE8=夜は待っている
TTITLE9=命の水 S#29,31
TTITLE10=火露見 S#32
TTITLE11=順三郎 〜featuring Bandneon
TTITLE12=あやこ S#53
TTITLE13=命の水 S#57
TTITLE14=順三郎(幻想) S#59
TTITLE15=リツ子(幻想) S#63
TTITLE16=あやこ(幻想) S#65
TTITLE17=オー・ド・ヴィ 〜ending
TTITLE18=火露見  〜ending
EXTD=
EXTT0=
EXTT1=
EXTT2=
EXTT3=
EXTT4=
EXTT5=
EXTT6=
EXTT7=
EXTT8=
EXTT9=
EXTT10=
EXTT11=
EXTT12=
EXTT13=
EXTT14=
EXTT15=
EXTT16=
EXTT17=
EXTT18=
PLAYORDER=
